<svg width="2417" height="1250" xmlns="http://www.w3.org/2000/svg" xmlns:xlink="http://www.w3.org/1999/xlink" xml:space="preserve" overflow="hidden"><defs><clipPath id="clip0"><rect x="246" y="407" width="2417" height="1250"/></clipPath></defs><g clip-path="url(#clip0)" transform="translate(-246 -407)"><rect x="247" y="408" width="2414" height="1247" fill="#FFFFFF"/><g><path d="M377.5 1285.54 2610.5 1285.54M377.5 1120.54 2610.5 1120.54M377.5 954.531 2610.5 954.531M377.5 789.526 2610.5 789.526M377.5 623.521 2610.5 623.521M377.5 458.5 2610.5 458.5" stroke="#D9D9D9" stroke-width="3.4375" stroke-linejoin="round" stroke-miterlimit="10" fill="none"/></g><g><path d="M377.5 1451.5 2610.5 1451.5" stroke="#D9D9D9" stroke-width="3.4375" stroke-linejoin="round" stroke-miterlimit="10" fill="none" fill-rule="evenodd"/></g><g><path d="M563 723.024 936.031 756 1308.04 624.021 1680.06 590 2052.07 624.021 2424 690.023" stroke="#4F81BD" stroke-width="10.3125" stroke-linecap="round" stroke-linejoin="round" stroke-miterlimit="10" fill="none"/></g><g><path d="M574.051 722.14C574.051 728.215 569.126 733.14 563.051 733.14 556.976 733.14 552.051 728.215 552.051 722.14 552.051 716.065 556.976 711.141 563.051 711.141 569.126 711.141 574.051 716.065 574.051 722.14Z" stroke="#4F81BD" stroke-width="3.4375" stroke-linejoin="round" stroke-miterlimit="10" fill="#4F81BD"/><path d="M946.051 756.14C946.051 762.215 941.126 767.14 935.051 767.14 928.976 767.14 924.052 762.215 924.052 756.14 924.052 750.065 928.976 745.141 935.051 745.141 941.126 745.141 946.051 750.065 946.051 756.14Z" stroke="#4F81BD" stroke-width="3.4375" stroke-linejoin="round" stroke-miterlimit="10" fill="#4F81BD"/><path d="M1318.05 623.14C1318.05 629.215 1313.13 634.14 1307.05 634.14 1300.98 634.14 1296.05 629.215 1296.05 623.14 1296.05 617.065 1300.98 612.141 1307.05 612.141 1313.13 612.141 1318.05 617.065 1318.05 623.14Z" stroke="#4F81BD" stroke-width="3.4375" stroke-linejoin="round" stroke-miterlimit="10" fill="#4F81BD"/><path d="M1690.05 590.14C1690.05 596.215 1685.13 601.14 1679.05 601.14 1672.98 601.14 1668.05 596.215 1668.05 590.14 1668.05 584.065 1672.98 579.141 1679.05 579.141 1685.13 579.141 1690.05 584.065 1690.05 590.14Z" stroke="#4F81BD" stroke-width="3.4375" stroke-linejoin="round" stroke-miterlimit="10" fill="#4F81BD"/><path d="M2063.05 623.14C2063.05 629.215 2058.13 634.14 2052.05 634.14 2045.98 634.14 2041.05 629.215 2041.05 623.14 2041.05 617.065 2045.98 612.141 2052.05 612.141 2058.13 612.141 2063.05 617.065 2063.05 623.14Z" stroke="#4F81BD" stroke-width="3.4375" stroke-linejoin="round" stroke-miterlimit="10" fill="#4F81BD"/><path d="M2435.05 689.14C2435.05 695.215 2430.13 700.14 2424.05 700.14 2417.98 700.14 2413.05 695.215 2413.05 689.14 2413.05 683.065 2417.98 678.141 2424.05 678.141 2430.13 678.141 2435.05 683.065 2435.05 689.14Z" stroke="#4F81BD" stroke-width="3.4375" stroke-linejoin="round" stroke-miterlimit="10" fill="#4F81BD"/></g><g><path d="M563 756 936.031 756 1308.04 756 1680.06 756 2052.07 756 2424 756" stroke="#C0504D" stroke-width="10.3125" stroke-linecap="round" stroke-linejoin="round" stroke-miterlimit="10" stroke-dasharray="0 20.625" fill="none"/></g><g><path d="M563 822 936.031 822 1308.04 822 1680.06 822 2052.07 822 2424 822" stroke="#9BBB59" stroke-width="10.3125" stroke-linecap="round" stroke-linejoin="round" stroke-miterlimit="10" stroke-dasharray="20.625 20.625" fill="none"/></g><g><path d="M563 1253 936.031 1253 1308.04 1253 1680.06 1253 2052.07 1253 2424 1253" stroke="#8064A2" stroke-width="10.3125" stroke-linecap="round" stroke-linejoin="round" stroke-miterlimit="10" stroke-dasharray="30.9375 41.25" fill="none"/></g><g><text fill="#404040" font-family="Calibri,Calibri_MSFontService,sans-serif" font-weight="400" font-size="46" transform="matrix(1 0 0 1 528.54 679)">162</text></g><g><text fill="#404040" font-family="Calibri,Calibri_MSFontService,sans-serif" font-weight="400" font-size="46" transform="matrix(1 0 0 1 900.714 712)">161</text></g><g><text fill="#404040" font-family="Calibri,Calibri_MSFontService,sans-serif" font-weight="400" font-size="46" transform="matrix(1 0 0 1 1272.89 580)">165</text></g><g><text fill="#404040" font-family="Calibri,Calibri_MSFontService,sans-serif" font-weight="700" font-size="46" transform="matrix(1 0 0 1 1645.06 546)">166</text></g><g><text fill="#404040" font-family="Calibri,Calibri_MSFontService,sans-serif" font-weight="400" font-size="46" transform="matrix(1 0 0 1 2017.23 580)">165</text></g><g><text fill="#404040" font-family="Calibri,Calibri_MSFontService,sans-serif" font-weight="400" font-size="46" transform="matrix(1 0 0 1 2389.41 646)">163</text></g><g><path d="M2424.5 756.5 2426.58 742.5 2447.5 742.5" stroke="#A6A6A6" stroke-width="3.4375" stroke-linejoin="round" stroke-miterlimit="10" fill="none"/></g><g><text fill="#404040" font-family="Calibri,Calibri_MSFontService,sans-serif" font-weight="400" font-size="48" transform="matrix(1 0 0 1 2025.67 734)">161</text></g><g><text fill="#404040" font-family="Calibri,Calibri_MSFontService,sans-serif" font-weight="400" font-size="41" transform="matrix(1 0 0 1 2461.21 756)">BAC</text></g><g><text fill="#404040" font-family="Calibri,Calibri_MSFontService,sans-serif" font-weight="400" font-size="41" transform="matrix(1 0 0 1 2529.52 756)">-</text></g><g><text fill="#404040" font-family="Calibri,Calibri_MSFontService,sans-serif" font-weight="400" font-size="41" transform="matrix(1 0 0 1 2542.15 756)">1500</text></g><g><path d="M2424.5 822.5 2433.58 808.5 2453.5 808.5" stroke="#A6A6A6" stroke-width="3.4375" stroke-linejoin="round" stroke-miterlimit="10" fill="none"/></g><g><text fill="#404040" font-family="Calibri,Calibri_MSFontService,sans-serif" font-weight="400" font-size="48" transform="matrix(1 0 0 1 2025.67 874)">159</text></g><g><text fill="#404040" font-family="Calibri,Calibri_MSFontService,sans-serif" font-weight="400" font-size="41" transform="matrix(1 0 0 1 2467.67 823)">ABC</text></g><g><text fill="#404040" font-family="Calibri,Calibri_MSFontService,sans-serif" font-weight="400" font-size="41" transform="matrix(1 0 0 1 2535.98 823)">-</text></g><g><text fill="#404040" font-family="Calibri,Calibri_MSFontService,sans-serif" font-weight="400" font-size="41" transform="matrix(1 0 0 1 2548.61 823)">BMC</text></g><g><text fill="#404040" font-family="Calibri,Calibri_MSFontService,sans-serif" font-weight="400" font-size="48" transform="matrix(1 0 0 1 2015.52 1208)">146</text></g><g><text fill="#404040" font-family="Calibri,Calibri_MSFontService,sans-serif" font-weight="400" font-size="41" transform="matrix(1 0 0 1 2446.74 1257)">simpleCAR</text></g><g><text fill="#595959" font-family="Calibri,Calibri_MSFontService,sans-serif" font-weight="400" font-size="41" transform="matrix(1 0 0 1 276.343 1463)">140</text></g><g><text fill="#595959" font-family="Calibri,Calibri_MSFontService,sans-serif" font-weight="400" font-size="41" transform="matrix(1 0 0 1 276.343 1297)">145</text></g><g><text fill="#595959" font-family="Calibri,Calibri_MSFontService,sans-serif" font-weight="400" font-size="41" transform="matrix(1 0 0 1 276.343 1132)">150</text></g><g><text fill="#595959" font-family="Calibri,Calibri_MSFontService,sans-serif" font-weight="400" font-size="41" transform="matrix(1 0 0 1 276.343 966)">155</text></g><g><text fill="#595959" font-family="Calibri,Calibri_MSFontService,sans-serif" font-weight="400" font-size="41" transform="matrix(1 0 0 1 276.343 801)">160</text></g><g><text fill="#595959" font-family="Calibri,Calibri_MSFontService,sans-serif" font-weight="400" font-size="41" transform="matrix(1 0 0 1 276.343 635)">165</text></g><g><text fill="#595959" font-family="Calibri,Calibri_MSFontService,sans-serif" font-weight="400" font-size="41" transform="matrix(1 0 0 1 276.343 470)">170</text></g><g><text fill="#595959" font-family="Calibri,Calibri_MSFontService,sans-serif" font-weight="400" font-size="41" transform="matrix(1 0 0 1 532.047 1517)">180</text></g><g><text fill="#595959" font-family="Calibri,Calibri_MSFontService,sans-serif" font-weight="400" font-size="41" transform="matrix(1 0 0 1 904.22 1517)">240</text></g><g><text fill="#595959" font-family="Calibri,Calibri_MSFontService,sans-serif" font-weight="400" font-size="41" transform="matrix(1 0 0 1 1276.39 1517)">300</text></g><g><text fill="#595959" font-family="Calibri,Calibri_MSFontService,sans-serif" font-weight="400" font-size="41" transform="matrix(1 0 0 1 1648.57 1517)">360</text></g><g><text fill="#595959" font-family="Calibri,Calibri_MSFontService,sans-serif" font-weight="400" font-size="41" transform="matrix(1 0 0 1 2020.74 1517)">420</text></g><g><text fill="#595959" font-family="Calibri,Calibri_MSFontService,sans-serif" font-weight="400" font-size="41" transform="matrix(1 0 0 1 2392.91 1517)">480</text></g><g><text fill="#595959" font-family="Calibri,Calibri_MSFontService,sans-serif" font-weight="400" font-size="46" transform="matrix(1 0 0 1 1261.79 1605)">Restart Time Limit(s)</text></g><rect x="247.5" y="408.5" width="2414" height="1247" stroke="#D9D9D9" stroke-width="3.4375" stroke-linejoin="round" stroke-miterlimit="10" fill="none"/></g></svg>