<svg width="2493" height="1273" xmlns="http://www.w3.org/2000/svg" xmlns:xlink="http://www.w3.org/1999/xlink" xml:space="preserve" overflow="hidden"><defs><clipPath id="clip0"><rect x="247" y="413" width="2493" height="1273"/></clipPath></defs><g clip-path="url(#clip0)" transform="translate(-247 -413)"><rect x="248" y="414" width="2490" height="1270" fill="#FFFFFF"/><g><path d="M412.5 1281.54 2687.5 1281.54M412.5 1119.54 2687.5 1119.54M412.5 957.532 2687.5 957.532M412.5 795.526 2687.5 795.526M412.5 633.521 2687.5 633.521M412.5 470.5 2687.5 470.5" stroke="#D9D9D9" stroke-width="3.4375" stroke-linejoin="round" stroke-miterlimit="10" fill="none"/></g><g><path d="M412.5 1444.5 2687.5 1444.5" stroke="#D9D9D9" stroke-width="3.4375" stroke-linejoin="round" stroke-miterlimit="10" fill="none" fill-rule="evenodd"/></g><g><path d="M602 730.024 981.032 763 1360.04 633.021 1740.06 601 2119.07 633.021 2498 698.023" stroke="#4F81BD" stroke-width="10.3125" stroke-linecap="round" stroke-linejoin="round" stroke-miterlimit="10" fill="none"/></g><g><path d="M613.597 730.943C613.597 737.018 608.672 741.942 602.598 741.942 596.523 741.942 591.598 737.018 591.598 730.943 591.598 724.868 596.523 719.943 602.598 719.943 608.672 719.943 613.597 724.868 613.597 730.943Z" stroke="#4F81BD" stroke-width="3.4375" stroke-linejoin="round" stroke-miterlimit="10" fill="#4F81BD"/><path d="M992.597 762.943C992.597 769.018 987.672 773.942 981.597 773.942 975.522 773.942 970.598 769.018 970.598 762.943 970.598 756.868 975.522 751.943 981.597 751.943 987.672 751.943 992.597 756.868 992.597 762.943Z" stroke="#4F81BD" stroke-width="3.4375" stroke-linejoin="round" stroke-miterlimit="10" fill="#4F81BD"/><path d="M1371.6 633.943C1371.6 640.018 1366.67 644.942 1360.6 644.942 1354.52 644.942 1349.6 640.018 1349.6 633.943 1349.6 627.868 1354.52 622.943 1360.6 622.943 1366.67 622.943 1371.6 627.868 1371.6 633.943Z" stroke="#4F81BD" stroke-width="3.4375" stroke-linejoin="round" stroke-miterlimit="10" fill="#4F81BD"/><path d="M1750.6 600.943C1750.6 607.018 1745.67 611.942 1739.6 611.942 1733.52 611.942 1728.6 607.018 1728.6 600.943 1728.6 594.868 1733.52 589.943 1739.6 589.943 1745.67 589.943 1750.6 594.868 1750.6 600.943Z" stroke="#4F81BD" stroke-width="3.4375" stroke-linejoin="round" stroke-miterlimit="10" fill="#4F81BD"/><path d="M2129.6 633.943C2129.6 640.018 2124.67 644.942 2118.6 644.942 2112.52 644.942 2107.6 640.018 2107.6 633.943 2107.6 627.868 2112.52 622.943 2118.6 622.943 2124.67 622.943 2129.6 627.868 2129.6 633.943Z" stroke="#4F81BD" stroke-width="3.4375" stroke-linejoin="round" stroke-miterlimit="10" fill="#4F81BD"/><path d="M2509.6 697.943C2509.6 704.018 2504.67 708.942 2498.6 708.942 2492.52 708.942 2487.6 704.018 2487.6 697.943 2487.6 691.868 2492.52 686.943 2498.6 686.943 2504.67 686.943 2509.6 691.868 2509.6 697.943Z" stroke="#4F81BD" stroke-width="3.4375" stroke-linejoin="round" stroke-miterlimit="10" fill="#4F81BD"/></g><g><path d="M602 763 981.032 763 1360.04 763 1740.06 763 2119.07 763 2498 763" stroke="#C0504D" stroke-width="10.3125" stroke-linecap="round" stroke-linejoin="round" stroke-miterlimit="10" stroke-dasharray="0 20.625" fill="none"/></g><g><path d="M602 828 981.032 828 1360.04 828 1740.06 828 2119.07 828 2498 828" stroke="#9BBB59" stroke-width="10.3125" stroke-linecap="round" stroke-linejoin="round" stroke-miterlimit="10" stroke-dasharray="20.625 20.625" fill="none"/></g><g><path d="M602 1249 981.032 1249 1360.04 1249 1740.06 1249 2119.07 1249 2498 1249" stroke="#8064A2" stroke-width="10.3125" stroke-linecap="round" stroke-linejoin="round" stroke-miterlimit="10" stroke-dasharray="30.9375 41.25" fill="none"/></g><g><text fill="#404040" font-family="Calibri,Calibri_MSFontService,sans-serif" font-weight="400" font-size="55" transform="matrix(1 0 0 1 560.309 683)">162</text></g><g><text fill="#404040" font-family="Calibri,Calibri_MSFontService,sans-serif" font-weight="400" font-size="55" transform="matrix(1 0 0 1 939.494 716)">161</text></g><g><text fill="#404040" font-family="Calibri,Calibri_MSFontService,sans-serif" font-weight="400" font-size="55" transform="matrix(1 0 0 1 1318.68 586)">165</text></g><g><text fill="#404040" font-family="Calibri,Calibri_MSFontService,sans-serif" font-weight="400" font-size="55" transform="matrix(1 0 0 1 1697.86 553)">166</text></g><g><text fill="#404040" font-family="Calibri,Calibri_MSFontService,sans-serif" font-weight="400" font-size="55" transform="matrix(1 0 0 1 2077.05 586)">165</text></g><g><text fill="#404040" font-family="Calibri,Calibri_MSFontService,sans-serif" font-weight="400" font-size="55" transform="matrix(1 0 0 1 2456.23 651)">163</text></g><g><text fill="#404040" font-family="Calibri,Calibri_MSFontService,sans-serif" font-weight="400" font-size="55" transform="matrix(1 0 0 1 2090.37 742)">161</text></g><g><text fill="#404040" font-family="Calibri,Calibri_MSFontService,sans-serif" font-weight="400" font-size="55" transform="matrix(1 0 0 1 2503.78 768)">BAC</text></g><g><text fill="#404040" font-family="Calibri,Calibri_MSFontService,sans-serif" font-weight="400" font-size="55" transform="matrix(1 0 0 1 2593.91 768)">-</text></g><g><text fill="#404040" font-family="Calibri,Calibri_MSFontService,sans-serif" font-weight="400" font-size="55" transform="matrix(1 0 0 1 2610.75 768)">1500</text></g><g><text fill="#404040" font-family="Calibri,Calibri_MSFontService,sans-serif" font-weight="400" font-size="55" transform="matrix(1 0 0 1 2090.37 882)">159</text></g><g><text fill="#404040" font-family="Calibri,Calibri_MSFontService,sans-serif" font-weight="400" font-size="55" transform="matrix(1 0 0 1 2510.11 832)">ABC</text></g><g><text fill="#404040" font-family="Calibri,Calibri_MSFontService,sans-serif" font-weight="400" font-size="55" transform="matrix(1 0 0 1 2601.19 832)">-</text></g><g><text fill="#404040" font-family="Calibri,Calibri_MSFontService,sans-serif" font-weight="400" font-size="55" transform="matrix(1 0 0 1 2618.03 832)">BMC</text></g><g><text fill="#404040" font-family="Calibri,Calibri_MSFontService,sans-serif" font-weight="400" font-size="55" transform="matrix(1 0 0 1 2077.05 1202)">146</text></g><g><text fill="#404040" font-family="Calibri,Calibri_MSFontService,sans-serif" font-weight="400" font-size="46" transform="matrix(1 0 0 1 2509 1256)">simpleCAR</text></g><g><text fill="#595959" font-family="Calibri,Calibri_MSFontService,sans-serif" font-weight="400" font-size="55" transform="matrix(1 0 0 1 277.889 1459)">140</text></g><g><text fill="#595959" font-family="Calibri,Calibri_MSFontService,sans-serif" font-weight="400" font-size="55" transform="matrix(1 0 0 1 277.889 1297)">145</text></g><g><text fill="#595959" font-family="Calibri,Calibri_MSFontService,sans-serif" font-weight="400" font-size="55" transform="matrix(1 0 0 1 277.889 1135)">150</text></g><g><text fill="#595959" font-family="Calibri,Calibri_MSFontService,sans-serif" font-weight="400" font-size="55" transform="matrix(1 0 0 1 277.889 973)">155</text></g><g><text fill="#595959" font-family="Calibri,Calibri_MSFontService,sans-serif" font-weight="400" font-size="55" transform="matrix(1 0 0 1 277.889 811)">160</text></g><g><text fill="#595959" font-family="Calibri,Calibri_MSFontService,sans-serif" font-weight="400" font-size="55" transform="matrix(1 0 0 1 277.889 649)">165</text></g><g><text fill="#595959" font-family="Calibri,Calibri_MSFontService,sans-serif" font-weight="400" font-size="55" transform="matrix(1 0 0 1 277.889 486)">170</text></g><g><text fill="#595959" font-family="Calibri,Calibri_MSFontService,sans-serif" font-weight="400" font-size="55" transform="matrix(1 0 0 1 560.31 1531)">180</text></g><g><text fill="#595959" font-family="Calibri,Calibri_MSFontService,sans-serif" font-weight="400" font-size="55" transform="matrix(1 0 0 1 939.495 1531)">240</text></g><g><text fill="#595959" font-family="Calibri,Calibri_MSFontService,sans-serif" font-weight="400" font-size="55" transform="matrix(1 0 0 1 1318.68 1531)">300</text></g><g><text fill="#595959" font-family="Calibri,Calibri_MSFontService,sans-serif" font-weight="400" font-size="55" transform="matrix(1 0 0 1 1697.86 1531)">360</text></g><g><text fill="#595959" font-family="Calibri,Calibri_MSFontService,sans-serif" font-weight="400" font-size="55" transform="matrix(1 0 0 1 2077.05 1531)">420</text></g><g><text fill="#595959" font-family="Calibri,Calibri_MSFontService,sans-serif" font-weight="400" font-size="55" transform="matrix(1 0 0 1 2456.23 1531)">480</text></g><g><text fill="#595959" font-family="Calibri,Calibri_MSFontService,sans-serif" font-weight="400" font-size="55" transform="matrix(1 0 0 1 1294.75 1640)">Restart Time Limit(s)</text></g><rect x="248.5" y="414.5" width="2490" height="1270" stroke="#D9D9D9" stroke-width="3.4375" stroke-linejoin="round" stroke-miterlimit="10" fill="none"/></g></svg>