<svg width="2446" height="1194" xmlns="http://www.w3.org/2000/svg" xmlns:xlink="http://www.w3.org/1999/xlink" xml:space="preserve" overflow="hidden"><defs><clipPath id="clip0"><rect x="1689" y="334" width="2446" height="1194"/></clipPath><clipPath id="clip1"><rect x="1689" y="335" width="2444" height="1191"/></clipPath></defs><g clip-path="url(#clip0)" transform="translate(-1689 -334)"><rect x="1690" y="335" width="2443" height="1191" fill="#FFFFFF"/><g><path d="M1831.5 1157.54 4075.5 1157.54M1831.5 1000.53 4075.5 1000.53M1831.5 842.528 4075.5 842.528M1831.5 685.523 4075.5 685.523M1831.5 527.517 4075.5 527.517M1831.5 369.5 4075.5 369.5" stroke="#D9D9D9" stroke-width="3.4375" stroke-linejoin="round" stroke-miterlimit="10" fill="none"/></g><g><path d="M1831.5 1315.5 4075.5 1315.5" stroke="#D9D9D9" stroke-width="3.4375" stroke-linejoin="round" stroke-miterlimit="10" fill="none" fill-rule="evenodd"/></g><g><path d="M1831.5 1315.5 1831.5 1332.5M2205.57 1315.5 2205.57 1332.5M2579.58 1315.5 2579.58 1332.5M2953.6 1315.5 2953.6 1332.5M3327.61 1315.5 3327.61 1332.5M3701.62 1315.5 3701.62 1332.5M4075.5 1315.5 4075.5 1332.5" stroke="#D9D9D9" stroke-width="3.4375" stroke-linejoin="round" stroke-miterlimit="10" fill="none"/></g><g><path d="M2018.5 495.5 2392.58 464.515 2766.59 401.5 3140.6 401.5 3514.62 401.5 3888.5 401.5" stroke="#4A7EBB" stroke-width="6.875" stroke-linecap="round" stroke-linejoin="round" stroke-miterlimit="10" fill="none"/></g><g><path d="M2056.6 496.226C2056.6 517.765 2039.14 535.226 2017.6 535.226 1996.06 535.226 1978.6 517.765 1978.6 496.226 1978.6 474.687 1996.06 457.226 2017.6 457.226 2039.14 457.226 2056.6 474.687 2056.6 496.226Z" fill="#FFFFFF"/><path d="M2430.6 464.226C2430.6 485.765 2413.14 503.226 2391.6 503.226 2370.06 503.226 2352.6 485.765 2352.6 464.226 2352.6 442.687 2370.06 425.226 2391.6 425.226 2413.14 425.226 2430.6 442.687 2430.6 464.226Z" fill="#FFFFFF"/><path d="M2804.6 401.226C2804.6 422.765 2787.14 440.226 2765.6 440.226 2744.06 440.226 2726.6 422.765 2726.6 401.226 2726.6 379.687 2744.06 362.226 2765.6 362.226 2787.14 362.226 2804.6 379.687 2804.6 401.226Z" fill="#FFFFFF"/><path d="M3178.6 401.226C3178.6 422.765 3161.14 440.226 3139.6 440.226 3118.06 440.226 3100.6 422.765 3100.6 401.226 3100.6 379.687 3118.06 362.226 3139.6 362.226 3161.14 362.226 3178.6 379.687 3178.6 401.226Z" fill="#FFFFFF"/><path d="M3553.6 401.226C3553.6 422.765 3536.14 440.226 3514.6 440.226 3493.06 440.226 3475.6 422.765 3475.6 401.226 3475.6 379.687 3493.06 362.226 3514.6 362.226 3536.14 362.226 3553.6 379.687 3553.6 401.226Z" fill="#FFFFFF"/><path d="M3927.6 401.226C3927.6 422.765 3910.14 440.226 3888.6 440.226 3867.06 440.226 3849.6 422.765 3849.6 401.226 3849.6 379.687 3867.06 362.226 3888.6 362.226 3910.14 362.226 3927.6 379.687 3927.6 401.226Z" fill="#FFFFFF"/></g><g><path d="M2018.5 1126.5 2392.58 1126.5 2766.59 1063.54 3140.6 1063.54 3514.62 1031.5 3888.5 1031.5" stroke="#8064A2" stroke-width="6.875" stroke-linecap="round" stroke-linejoin="round" stroke-miterlimit="10" stroke-dasharray="48.125 27.5" fill="none"/></g><g><path d="M2056.6 1126.23C2056.6 1147.77 2039.14 1165.23 2017.6 1165.23 1996.06 1165.23 1978.6 1147.77 1978.6 1126.23 1978.6 1104.69 1996.06 1087.23 2017.6 1087.23 2039.14 1087.23 2056.6 1104.69 2056.6 1126.23Z" fill="#FFFFFF"/><path d="M2430.6 1126.23C2430.6 1147.77 2413.14 1165.23 2391.6 1165.23 2370.06 1165.23 2352.6 1147.77 2352.6 1126.23 2352.6 1104.69 2370.06 1087.23 2391.6 1087.23 2413.14 1087.23 2430.6 1104.69 2430.6 1126.23Z" fill="#FFFFFF"/><path d="M2804.6 1063.23C2804.6 1084.77 2787.14 1102.23 2765.6 1102.23 2744.06 1102.23 2726.6 1084.77 2726.6 1063.23 2726.6 1041.69 2744.06 1024.23 2765.6 1024.23 2787.14 1024.23 2804.6 1041.69 2804.6 1063.23Z" fill="#FFFFFF"/><path d="M3178.6 1063.23C3178.6 1084.77 3161.14 1102.23 3139.6 1102.23 3118.06 1102.23 3100.6 1084.77 3100.6 1063.23 3100.6 1041.69 3118.06 1024.23 3139.6 1024.23 3161.14 1024.23 3178.6 1041.69 3178.6 1063.23Z" fill="#FFFFFF"/><path d="M3553.6 1032.23C3553.6 1053.77 3536.14 1071.23 3514.6 1071.23 3493.06 1071.23 3475.6 1053.77 3475.6 1032.23 3475.6 1010.69 3493.06 993.226 3514.6 993.226 3536.14 993.226 3553.6 1010.69 3553.6 1032.23Z" fill="#FFFFFF"/><path d="M3927.6 1032.23C3927.6 1053.77 3910.14 1071.23 3888.6 1071.23 3867.06 1071.23 3849.6 1053.77 3849.6 1032.23 3849.6 1010.69 3867.06 993.226 3888.6 993.226 3910.14 993.226 3927.6 1010.69 3927.6 1032.23Z" fill="#FFFFFF"/></g><g><path d="M2018.5 653.5 2392.58 590.52 2766.59 464.5 3140.6 464.5 3514.62 464.5 3888.5 464.5" stroke="#C0504D" stroke-width="6.875" stroke-linecap="round" stroke-linejoin="round" stroke-miterlimit="10" stroke-dasharray="0 13.75" fill="none"/></g><g><path d="M2056.6 654.226C2056.6 675.765 2039.14 693.226 2017.6 693.226 1996.06 693.226 1978.6 675.765 1978.6 654.226 1978.6 632.687 1996.06 615.226 2017.6 615.226 2039.14 615.226 2056.6 632.687 2056.6 654.226Z" fill="#FFFFFF"/><path d="M2430.6 591.226C2430.6 612.765 2413.14 630.226 2391.6 630.226 2370.06 630.226 2352.6 612.765 2352.6 591.226 2352.6 569.687 2370.06 552.226 2391.6 552.226 2413.14 552.226 2430.6 569.687 2430.6 591.226Z" fill="#FFFFFF"/><path d="M2804.6 464.226C2804.6 485.765 2787.14 503.226 2765.6 503.226 2744.06 503.226 2726.6 485.765 2726.6 464.226 2726.6 442.687 2744.06 425.226 2765.6 425.226 2787.14 425.226 2804.6 442.687 2804.6 464.226Z" fill="#FFFFFF"/><path d="M3178.6 464.226C3178.6 485.765 3161.14 503.226 3139.6 503.226 3118.06 503.226 3100.6 485.765 3100.6 464.226 3100.6 442.687 3118.06 425.226 3139.6 425.226 3161.14 425.226 3178.6 442.687 3178.6 464.226Z" fill="#FFFFFF"/><path d="M3553.6 464.226C3553.6 485.765 3536.14 503.226 3514.6 503.226 3493.06 503.226 3475.6 485.765 3475.6 464.226 3475.6 442.687 3493.06 425.226 3514.6 425.226 3536.14 425.226 3553.6 442.687 3553.6 464.226Z" fill="#FFFFFF"/><path d="M3927.6 464.226C3927.6 485.765 3910.14 503.226 3888.6 503.226 3867.06 503.226 3849.6 485.765 3849.6 464.226 3849.6 442.687 3867.06 425.226 3888.6 425.226 3910.14 425.226 3927.6 442.687 3927.6 464.226Z" fill="#FFFFFF"/></g><g><path d="M2018.5 716.5 2392.58 590.52 2766.59 558.518 3140.6 558.518 3514.62 558.518 3888.5 527.5" stroke="#9BBB59" stroke-width="6.875" stroke-linecap="round" stroke-linejoin="round" stroke-miterlimit="10" stroke-dasharray="20.625 27.5" stroke-opacity="0.968627" fill="none"/></g><g><path d="M2056.6 717.226C2056.6 738.765 2039.14 756.226 2017.6 756.226 1996.06 756.226 1978.6 738.765 1978.6 717.226 1978.6 695.687 1996.06 678.226 2017.6 678.226 2039.14 678.226 2056.6 695.687 2056.6 717.226Z" fill="#FFFFFF"/><path d="M2430.6 591.226C2430.6 612.765 2413.14 630.226 2391.6 630.226 2370.06 630.226 2352.6 612.765 2352.6 591.226 2352.6 569.687 2370.06 552.226 2391.6 552.226 2413.14 552.226 2430.6 569.687 2430.6 591.226Z" fill="#FFFFFF"/><path d="M2804.6 559.226C2804.6 580.765 2787.14 598.226 2765.6 598.226 2744.06 598.226 2726.6 580.765 2726.6 559.226 2726.6 537.687 2744.06 520.226 2765.6 520.226 2787.14 520.226 2804.6 537.687 2804.6 559.226Z" fill="#FFFFFF"/><path d="M3178.6 559.226C3178.6 580.765 3161.14 598.226 3139.6 598.226 3118.06 598.226 3100.6 580.765 3100.6 559.226 3100.6 537.687 3118.06 520.226 3139.6 520.226 3161.14 520.226 3178.6 537.687 3178.6 559.226Z" fill="#FFFFFF"/><path d="M3553.6 559.226C3553.6 580.765 3536.14 598.226 3514.6 598.226 3493.06 598.226 3475.6 580.765 3475.6 559.226 3475.6 537.687 3493.06 520.226 3514.6 520.226 3536.14 520.226 3553.6 537.687 3553.6 559.226Z" fill="#FFFFFF"/><path d="M3927.6 527.226C3927.6 548.765 3910.14 566.226 3888.6 566.226 3867.06 566.226 3849.6 548.765 3849.6 527.226 3849.6 505.687 3867.06 488.226 3888.6 488.226 3910.14 488.226 3927.6 505.687 3927.6 527.226Z" fill="#FFFFFF"/></g><g><text fill="#4F81BD" font-family="Calibri,Calibri_MSFontService,sans-serif" font-weight="400" font-size="55" transform="matrix(1 0 0 1 1976.35 514)">166</text></g><g><text fill="#4F81BD" font-family="Calibri,Calibri_MSFontService,sans-serif" font-weight="400" font-size="55" transform="matrix(1 0 0 1 2350.46 483)">167</text></g><g><text fill="#4F81BD" font-family="Calibri,Calibri_MSFontService,sans-serif" font-weight="400" font-size="55" transform="matrix(1 0 0 1 2724.56 420)">169</text></g><g><text fill="#4F81BD" font-family="Calibri,Calibri_MSFontService,sans-serif" font-weight="400" font-size="55" transform="matrix(1 0 0 1 3098.66 420)">169</text></g><g><text fill="#4F81BD" font-family="Calibri,Calibri_MSFontService,sans-serif" font-weight="400" font-size="55" transform="matrix(1 0 0 1 3472.76 420)">169</text></g><g><text fill="#4F81BD" font-family="Calibri,Calibri_MSFontService,sans-serif" font-weight="400" font-size="55" transform="matrix(1 0 0 1 3846.86 420)">169</text></g><g><text fill="#2C4D75" font-family="Calibri,Calibri_MSFontService,sans-serif" font-weight="400" font-size="55" transform="matrix(1 0 0 1 1976.35 1145)">146</text></g><g><text fill="#2C4D75" font-family="Calibri,Calibri_MSFontService,sans-serif" font-weight="400" font-size="55" transform="matrix(1 0 0 1 2350.46 1145)">146</text></g><g><text fill="#2C4D75" font-family="Calibri,Calibri_MSFontService,sans-serif" font-weight="400" font-size="55" transform="matrix(1 0 0 1 2724.56 1082)">148</text></g><g><text fill="#2C4D75" font-family="Calibri,Calibri_MSFontService,sans-serif" font-weight="400" font-size="55" transform="matrix(1 0 0 1 3098.66 1082)">148</text></g><g><text fill="#2C4D75" font-family="Calibri,Calibri_MSFontService,sans-serif" font-weight="400" font-size="55" transform="matrix(1 0 0 1 3472.76 1050)">149</text></g><g><text fill="#2C4D75" font-family="Calibri,Calibri_MSFontService,sans-serif" font-weight="400" font-size="55" transform="matrix(1 0 0 1 3846.86 1050)">149</text></g><g><text fill="#772C2A" font-family="Calibri,Calibri_MSFontService,sans-serif" font-weight="400" font-size="55" transform="matrix(1 0 0 1 1976.35 672)">161</text></g><g><text fill="#772C2A" font-family="Calibri,Calibri_MSFontService,sans-serif" font-weight="400" font-size="55" transform="matrix(1 0 0 1 2350.46 609)">163</text></g><g><text fill="#772C2A" font-family="Calibri,Calibri_MSFontService,sans-serif" font-weight="400" font-size="55" transform="matrix(1 0 0 1 2724.56 483)">167</text></g><g><text fill="#772C2A" font-family="Calibri,Calibri_MSFontService,sans-serif" font-weight="400" font-size="55" transform="matrix(1 0 0 1 3098.66 483)">167</text></g><g><text fill="#772C2A" font-family="Calibri,Calibri_MSFontService,sans-serif" font-weight="400" font-size="55" transform="matrix(1 0 0 1 3472.76 483)">167</text></g><g><text fill="#772C2A" font-family="Calibri,Calibri_MSFontService,sans-serif" font-weight="400" font-size="55" transform="matrix(1 0 0 1 3846.86 483)">167</text></g><g><text fill="#5F7530" font-family="Calibri,Calibri_MSFontService,sans-serif" font-weight="400" font-size="55" transform="matrix(1 0 0 1 1976.35 735)">159</text></g><g><text fill="#5F7530" font-family="Calibri,Calibri_MSFontService,sans-serif" font-weight="400" font-size="55" transform="matrix(1 0 0 1 2350.46 609)">163</text></g><g><text fill="#5F7530" font-family="Calibri,Calibri_MSFontService,sans-serif" font-weight="400" font-size="55" transform="matrix(1 0 0 1 2724.56 577)">164</text></g><g><text fill="#5F7530" font-family="Calibri,Calibri_MSFontService,sans-serif" font-weight="400" font-size="55" transform="matrix(1 0 0 1 3098.66 577)">164</text></g><g><text fill="#5F7530" font-family="Calibri,Calibri_MSFontService,sans-serif" font-weight="400" font-size="55" transform="matrix(1 0 0 1 3472.76 577)">164</text></g><g><text fill="#5F7530" font-family="Calibri,Calibri_MSFontService,sans-serif" font-weight="400" font-size="55" transform="matrix(1 0 0 1 3846.86 546)">165</text></g><g><text fill="#595959" font-family="Calibri,Calibri_MSFontService,sans-serif" font-weight="400" font-size="55" transform="matrix(1 0 0 1 1696.47 1331)">140</text></g><g><text fill="#595959" font-family="Calibri,Calibri_MSFontService,sans-serif" font-weight="400" font-size="55" transform="matrix(1 0 0 1 1696.47 1173)">145</text></g><g><text fill="#595959" font-family="Calibri,Calibri_MSFontService,sans-serif" font-weight="400" font-size="55" transform="matrix(1 0 0 1 1696.47 1016)">150</text></g><g><text fill="#595959" font-family="Calibri,Calibri_MSFontService,sans-serif" font-weight="400" font-size="55" transform="matrix(1 0 0 1 1696.47 858)">155</text></g><g><text fill="#595959" font-family="Calibri,Calibri_MSFontService,sans-serif" font-weight="400" font-size="55" transform="matrix(1 0 0 1 1696.47 700)">160</text></g><g><text fill="#595959" font-family="Calibri,Calibri_MSFontService,sans-serif" font-weight="400" font-size="55" transform="matrix(1 0 0 1 1696.47 543)">165</text></g><g clip-path="url(#clip1)"><text fill="#595959" font-family="Calibri,Calibri_MSFontService,sans-serif" font-weight="400" font-size="55" transform="matrix(1 0 0 1 1696.47 385)">170</text></g><g><text fill="#595959" font-family="Calibri,Calibri_MSFontService,sans-serif" font-weight="400" font-size="55" transform="matrix(1 0 0 1 2004.22 1402)">1</text></g><g><text fill="#595959" font-family="Calibri,Calibri_MSFontService,sans-serif" font-weight="400" font-size="55" transform="matrix(1 0 0 1 2378.32 1402)">2</text></g><g><text fill="#595959" font-family="Calibri,Calibri_MSFontService,sans-serif" font-weight="400" font-size="55" transform="matrix(1 0 0 1 2752.42 1402)">3</text></g><g><text fill="#595959" font-family="Calibri,Calibri_MSFontService,sans-serif" font-weight="400" font-size="55" transform="matrix(1 0 0 1 3126.52 1402)">4</text></g><g><text fill="#595959" font-family="Calibri,Calibri_MSFontService,sans-serif" font-weight="400" font-size="55" transform="matrix(1 0 0 1 3500.63 1402)">5</text></g><g><text fill="#595959" font-family="Calibri,Calibri_MSFontService,sans-serif" font-weight="400" font-size="55" transform="matrix(1 0 0 1 3874.73 1402)">6</text></g><g><text fill="#595959" font-family="Calibri,Calibri_MSFontService,sans-serif" font-weight="400" font-size="55" transform="matrix(1 0 0 1 3940.98 1389)">Time(H)</text></g><g><path d="M1933.5 1446.5 2049.5 1446.5" stroke="#4A7EBB" stroke-width="6.875" stroke-linecap="round" stroke-linejoin="round" stroke-miterlimit="10" fill="none" fill-rule="evenodd"/></g><g><path d="M2010 1446.5C2010 1456.72 2001.72 1465 1991.5 1465 1981.28 1465 1973 1456.72 1973 1446.5 1973 1436.28 1981.28 1428 1991.5 1428 2001.72 1428 2010 1436.28 2010 1446.5Z" fill="#FFFFFF"/></g><g><text fill="#595959" font-family="Calibri,Calibri_MSFontService,sans-serif" font-weight="400" font-size="64" transform="matrix(1 0 0 1 2062.03 1465)">Hybrid-CAR-360</text></g><g><path d="M2565.5 1446.5 2681.5 1446.5" stroke="#8064A2" stroke-width="6.875" stroke-linecap="round" stroke-linejoin="round" stroke-miterlimit="10" stroke-dasharray="48.125 27.5" fill="none" fill-rule="evenodd"/></g><g><path d="M2642 1446.5C2642 1456.72 2633.72 1465 2623.5 1465 2613.28 1465 2605 1456.72 2605 1446.5 2605 1436.28 2613.28 1428 2623.5 1428 2633.72 1428 2642 1436.28 2642 1446.5Z" fill="#FFFFFF"/></g><g><text fill="#595959" font-family="Calibri,Calibri_MSFontService,sans-serif" font-weight="400" font-size="64" transform="matrix(1 0 0 1 2694.06 1465)">simpleCAR</text></g><g><path d="M3058.5 1446.5 3174.5 1446.5" stroke="#C0504D" stroke-width="6.875" stroke-linecap="round" stroke-linejoin="round" stroke-miterlimit="10" stroke-dasharray="0 13.75" fill="none" fill-rule="evenodd"/></g><g><path d="M3135 1446.5C3135 1456.72 3126.72 1465 3116.5 1465 3106.28 1465 3098 1456.72 3098 1446.5 3098 1436.28 3106.28 1428 3116.5 1428 3126.72 1428 3135 1436.28 3135 1446.5Z" fill="#FFFFFF"/></g><g><text fill="#595959" font-family="Calibri,Calibri_MSFontService,sans-serif" font-weight="400" font-size="64" transform="matrix(1 0 0 1 3187.17 1465)">BAC-1500</text></g><g><path d="M3530.5 1446.5 3645.5 1446.5" stroke="#9BBB59" stroke-width="6.875" stroke-linecap="round" stroke-linejoin="round" stroke-miterlimit="10" stroke-dasharray="20.625 27.5" stroke-opacity="0.968627" fill="none" fill-rule="evenodd"/></g><g><path d="M3607 1446.5C3607 1456.72 3598.72 1465 3588.5 1465 3578.28 1465 3570 1456.72 3570 1446.5 3570 1436.28 3578.28 1428 3588.5 1428 3598.72 1428 3607 1436.28 3607 1446.5Z" fill="#FFFFFF"/></g><g><text fill="#595959" font-family="Calibri,Calibri_MSFontService,sans-serif" font-weight="400" font-size="64" transform="matrix(1 0 0 1 3658.61 1465)">ABC-BMC</text></g><rect x="1690.5" y="335.5" width="2443" height="1191" stroke="#D9D9D9" stroke-width="3.4375" stroke-linejoin="round" stroke-miterlimit="10" fill="none"/></g></svg>