<svg width="2447" height="1194" xmlns="http://www.w3.org/2000/svg" xmlns:xlink="http://www.w3.org/1999/xlink" xml:space="preserve" overflow="hidden"><defs><clipPath id="clip0"><rect x="1765" y="19" width="2447" height="1194"/></clipPath></defs><g clip-path="url(#clip0)" transform="translate(-1765 -19)"><rect x="1766" y="19.9999" width="2444" height="1191" fill="#FFFFFF"/><g><path d="M1904.5 842.528 4149.5 842.528M1904.5 684.523 4149.5 684.523M1904.5 527.518 4149.5 527.518M1904.5 369.512 4149.5 369.512M1904.5 212.507 4149.5 212.507M1904.5 54.5002 4149.5 54.5002" stroke="#D9D9D9" stroke-width="3.4375" stroke-linejoin="round" stroke-miterlimit="10" fill="none"/></g><g><path d="M1904.5 999.5 4149.5 999.5" stroke="#D9D9D9" stroke-width="3.4375" stroke-linejoin="round" stroke-miterlimit="10" fill="none" fill-rule="evenodd"/></g><g><path d="M1904.5 999.5 1904.5 1014.5M2278.57 999.5 2278.57 1014.5M2652.59 999.5 2652.59 1014.5M3027.6 999.5 3027.6 1014.5M3401.61 999.5 3401.61 1014.5M3775.62 999.5 3775.62 1014.5M4149.5 999.5 4149.5 1014.5" stroke="#D9D9D9" stroke-width="3.4375" stroke-linejoin="round" stroke-miterlimit="10" fill="none"/></g><g><path d="M2091.5 180.5 2465.58 149.505 2840.59 86.5001 3214.61 86.5001 3588.62 86.5001 3962.5 86.5001" stroke="#4A7EBB" stroke-width="6.875" stroke-linecap="round" stroke-linejoin="round" stroke-miterlimit="10" stroke-dasharray="13.75 13.75" fill="none"/></g><g><path d="M2131.44 180.785C2131.44 202.324 2113.98 219.785 2092.44 219.785 2070.9 219.785 2053.44 202.324 2053.44 180.785 2053.44 159.246 2070.9 141.785 2092.44 141.785 2113.98 141.785 2131.44 159.246 2131.44 180.785Z" fill="#FFFFFF"/><path d="M2505.44 148.785C2505.44 170.324 2487.98 187.785 2466.44 187.785 2444.9 187.785 2427.44 170.324 2427.44 148.785 2427.44 127.246 2444.9 109.785 2466.44 109.785 2487.98 109.785 2505.44 127.246 2505.44 148.785Z" fill="#FFFFFF"/><path d="M2879.44 85.7852C2879.44 107.324 2861.98 124.785 2840.44 124.785 2818.9 124.785 2801.44 107.324 2801.44 85.7852 2801.44 64.2462 2818.9 46.7854 2840.44 46.7854 2861.98 46.7854 2879.44 64.2462 2879.44 85.7852Z" fill="#FFFFFF"/><path d="M3253.44 85.7852C3253.44 107.324 3235.98 124.785 3214.44 124.785 3192.9 124.785 3175.44 107.324 3175.44 85.7852 3175.44 64.2462 3192.9 46.7854 3214.44 46.7854 3235.98 46.7854 3253.44 64.2462 3253.44 85.7852Z" fill="#FFFFFF"/><path d="M3627.44 85.7852C3627.44 107.324 3609.98 124.785 3588.44 124.785 3566.9 124.785 3549.44 107.324 3549.44 85.7852 3549.44 64.2462 3566.9 46.7854 3588.44 46.7854 3609.98 46.7854 3627.44 64.2462 3627.44 85.7852Z" fill="#FFFFFF"/><path d="M4001.44 85.7852C4001.44 107.324 3983.98 124.785 3962.44 124.785 3940.9 124.785 3923.44 107.324 3923.44 85.7852 3923.44 64.2462 3940.9 46.7854 3962.44 46.7854 3983.98 46.7854 4001.44 64.2462 4001.44 85.7852Z" fill="#FFFFFF"/></g><g><path d="M2091.5 810.5 2465.58 810.5 2840.59 747.525 3214.61 747.525 3588.62 716.5 3962.5 716.5" stroke="#294B74" stroke-width="6.875" stroke-linecap="round" stroke-linejoin="round" stroke-miterlimit="10" stroke-dasharray="48.125 27.5" fill="none"/></g><g><path d="M2131.44 810.785C2131.44 832.324 2113.98 849.785 2092.44 849.785 2070.9 849.785 2053.44 832.324 2053.44 810.785 2053.44 789.246 2070.9 771.785 2092.44 771.785 2113.98 771.785 2131.44 789.246 2131.44 810.785Z" fill="#FFFFFF"/><path d="M2505.44 810.785C2505.44 832.324 2487.98 849.785 2466.44 849.785 2444.9 849.785 2427.44 832.324 2427.44 810.785 2427.44 789.246 2444.9 771.785 2466.44 771.785 2487.98 771.785 2505.44 789.246 2505.44 810.785Z" fill="#FFFFFF"/><path d="M2879.44 747.785C2879.44 769.324 2861.98 786.785 2840.44 786.785 2818.9 786.785 2801.44 769.324 2801.44 747.785 2801.44 726.246 2818.9 708.785 2840.44 708.785 2861.98 708.785 2879.44 726.246 2879.44 747.785Z" fill="#FFFFFF"/><path d="M3253.44 747.785C3253.44 769.324 3235.98 786.785 3214.44 786.785 3192.9 786.785 3175.44 769.324 3175.44 747.785 3175.44 726.246 3192.9 708.785 3214.44 708.785 3235.98 708.785 3253.44 726.246 3253.44 747.785Z" fill="#FFFFFF"/><path d="M3627.44 715.785C3627.44 737.324 3609.98 754.785 3588.44 754.785 3566.9 754.785 3549.44 737.324 3549.44 715.785 3549.44 694.246 3566.9 676.785 3588.44 676.785 3609.98 676.785 3627.44 694.246 3627.44 715.785Z" fill="#FFFFFF"/><path d="M4001.44 715.785C4001.44 737.324 3983.98 754.785 3962.44 754.785 3940.9 754.785 3923.44 737.324 3923.44 715.785 3923.44 694.246 3940.9 676.785 3962.44 676.785 3983.98 676.785 4001.44 694.246 4001.44 715.785Z" fill="#FFFFFF"/></g><g><path d="M2091.5 338.5 2465.58 275.509 2840.59 149.5 3214.61 149.5 3588.62 149.5 3962.5 149.5" stroke="#F79646" stroke-width="6.875" stroke-linecap="round" stroke-linejoin="round" stroke-miterlimit="10" stroke-dasharray="20.625 27.5 0 27.5" fill="none"/></g><g><path d="M2131.44 337.785C2131.44 359.324 2113.98 376.785 2092.44 376.785 2070.9 376.785 2053.44 359.324 2053.44 337.785 2053.44 316.246 2070.9 298.785 2092.44 298.785 2113.98 298.785 2131.44 316.246 2131.44 337.785Z" fill="#FFFFFF"/><path d="M2505.44 274.785C2505.44 296.324 2487.98 313.785 2466.44 313.785 2444.9 313.785 2427.44 296.324 2427.44 274.785 2427.44 253.246 2444.9 235.785 2466.44 235.785 2487.98 235.785 2505.44 253.246 2505.44 274.785Z" fill="#FFFFFF"/><path d="M2879.44 148.785C2879.44 170.324 2861.98 187.785 2840.44 187.785 2818.9 187.785 2801.44 170.324 2801.44 148.785 2801.44 127.246 2818.9 109.785 2840.44 109.785 2861.98 109.785 2879.44 127.246 2879.44 148.785Z" fill="#FFFFFF"/><path d="M3253.44 148.785C3253.44 170.324 3235.98 187.785 3214.44 187.785 3192.9 187.785 3175.44 170.324 3175.44 148.785 3175.44 127.246 3192.9 109.785 3214.44 109.785 3235.98 109.785 3253.44 127.246 3253.44 148.785Z" fill="#FFFFFF"/><path d="M3627.44 148.785C3627.44 170.324 3609.98 187.785 3588.44 187.785 3566.9 187.785 3549.44 170.324 3549.44 148.785 3549.44 127.246 3566.9 109.785 3588.44 109.785 3609.98 109.785 3627.44 127.246 3627.44 148.785Z" fill="#FFFFFF"/><path d="M4001.44 148.785C4001.44 170.324 3983.98 187.785 3962.44 187.785 3940.9 187.785 3923.44 170.324 3923.44 148.785 3923.44 127.246 3940.9 109.785 3962.44 109.785 3983.98 109.785 4001.44 127.246 4001.44 148.785Z" fill="#FFFFFF"/></g><g><path d="M2091.5 401.5 2465.58 275.509 2840.59 243.508 3214.61 243.508 3588.62 243.508 3962.5 212.5" stroke="#632523" stroke-width="6.875" stroke-linecap="round" stroke-linejoin="round" stroke-miterlimit="10" stroke-dasharray="48.125 27.5 0 27.5" stroke-opacity="0.968627" fill="none"/></g><g><path d="M2131.44 400.785C2131.44 422.324 2113.98 439.785 2092.44 439.785 2070.9 439.785 2053.44 422.324 2053.44 400.785 2053.44 379.246 2070.9 361.785 2092.44 361.785 2113.98 361.785 2131.44 379.246 2131.44 400.785Z" fill="#FFFFFF"/><path d="M2505.44 274.785C2505.44 296.324 2487.98 313.785 2466.44 313.785 2444.9 313.785 2427.44 296.324 2427.44 274.785 2427.44 253.246 2444.9 235.785 2466.44 235.785 2487.98 235.785 2505.44 253.246 2505.44 274.785Z" fill="#FFFFFF"/><path d="M2879.44 243.785C2879.44 265.324 2861.98 282.785 2840.44 282.785 2818.9 282.785 2801.44 265.324 2801.44 243.785 2801.44 222.246 2818.9 204.785 2840.44 204.785 2861.98 204.785 2879.44 222.246 2879.44 243.785Z" fill="#FFFFFF"/><path d="M3253.44 243.785C3253.44 265.324 3235.98 282.785 3214.44 282.785 3192.9 282.785 3175.44 265.324 3175.44 243.785 3175.44 222.246 3192.9 204.785 3214.44 204.785 3235.98 204.785 3253.44 222.246 3253.44 243.785Z" fill="#FFFFFF"/><path d="M3627.44 243.785C3627.44 265.324 3609.98 282.785 3588.44 282.785 3566.9 282.785 3549.44 265.324 3549.44 243.785 3549.44 222.246 3566.9 204.785 3588.44 204.785 3609.98 204.785 3627.44 222.246 3627.44 243.785Z" fill="#FFFFFF"/><path d="M4001.44 211.785C4001.44 233.324 3983.98 250.785 3962.44 250.785 3940.9 250.785 3923.44 233.324 3923.44 211.785 3923.44 190.246 3940.9 172.785 3962.44 172.785 3983.98 172.785 4001.44 190.246 4001.44 211.785Z" fill="#FFFFFF"/></g><g><text fill="#4F81BD" font-family="Calibri,Calibri_MSFontService,sans-serif" font-weight="400" font-size="46" transform="matrix(1 0 0 1 2057.04 197)">166</text></g><g><text fill="#4F81BD" font-family="Calibri,Calibri_MSFontService,sans-serif" font-weight="400" font-size="46" transform="matrix(1 0 0 1 2431.14 165)">167</text></g><g><text fill="#4F81BD" font-family="Calibri,Calibri_MSFontService,sans-serif" font-weight="400" font-size="46" transform="matrix(1 0 0 1 2805.24 102)">169</text></g><g><text fill="#4F81BD" font-family="Calibri,Calibri_MSFontService,sans-serif" font-weight="400" font-size="46" transform="matrix(1 0 0 1 3179.34 102)">169</text></g><g><text fill="#4F81BD" font-family="Calibri,Calibri_MSFontService,sans-serif" font-weight="400" font-size="46" transform="matrix(1 0 0 1 3553.45 102)">169</text></g><g><text fill="#4F81BD" font-family="Calibri,Calibri_MSFontService,sans-serif" font-weight="400" font-size="46" transform="matrix(1 0 0 1 3927.55 102)">169</text></g><g><text fill="#2C4D75" font-family="Calibri,Calibri_MSFontService,sans-serif" font-weight="400" font-size="46" transform="matrix(1 0 0 1 2057.04 827)">146</text></g><g><text fill="#2C4D75" font-family="Calibri,Calibri_MSFontService,sans-serif" font-weight="400" font-size="46" transform="matrix(1 0 0 1 2431.14 827)">146</text></g><g><text fill="#2C4D75" font-family="Calibri,Calibri_MSFontService,sans-serif" font-weight="400" font-size="46" transform="matrix(1 0 0 1 2805.24 764)">148</text></g><g><text fill="#2C4D75" font-family="Calibri,Calibri_MSFontService,sans-serif" font-weight="400" font-size="46" transform="matrix(1 0 0 1 3179.34 764)">148</text></g><g><text fill="#2C4D75" font-family="Calibri,Calibri_MSFontService,sans-serif" font-weight="400" font-size="46" transform="matrix(1 0 0 1 3553.45 732)">149</text></g><g><text fill="#2C4D75" font-family="Calibri,Calibri_MSFontService,sans-serif" font-weight="400" font-size="46" transform="matrix(1 0 0 1 3927.55 732)">149</text></g><g><text fill="#F79646" font-family="Calibri,Calibri_MSFontService,sans-serif" font-weight="400" font-size="46" transform="matrix(1 0 0 1 2057.04 354)">161</text></g><g><text fill="#F79646" font-family="Calibri,Calibri_MSFontService,sans-serif" font-weight="400" font-size="46" transform="matrix(1 0 0 1 2431.14 291)">163</text></g><g><text fill="#F79646" font-family="Calibri,Calibri_MSFontService,sans-serif" font-weight="400" font-size="46" transform="matrix(1 0 0 1 2805.24 165)">167</text></g><g><text fill="#F79646" font-family="Calibri,Calibri_MSFontService,sans-serif" font-weight="400" font-size="46" transform="matrix(1 0 0 1 3179.34 165)">167</text></g><g><text fill="#F79646" font-family="Calibri,Calibri_MSFontService,sans-serif" font-weight="400" font-size="46" transform="matrix(1 0 0 1 3553.45 165)">167</text></g><g><text fill="#F79646" font-family="Calibri,Calibri_MSFontService,sans-serif" font-weight="400" font-size="46" transform="matrix(1 0 0 1 3927.55 165)">167</text></g><g><text fill="#632523" font-family="Calibri,Calibri_MSFontService,sans-serif" font-weight="400" font-size="46" transform="matrix(1 0 0 1 2057.04 417)">159</text></g><g><text fill="#632523" font-family="Calibri,Calibri_MSFontService,sans-serif" font-weight="400" font-size="46" transform="matrix(1 0 0 1 2431.14 291)">163</text></g><g><text fill="#632523" font-family="Calibri,Calibri_MSFontService,sans-serif" font-weight="400" font-size="46" transform="matrix(1 0 0 1 2805.24 260)">164</text></g><g><text fill="#632523" font-family="Calibri,Calibri_MSFontService,sans-serif" font-weight="400" font-size="46" transform="matrix(1 0 0 1 3179.34 260)">164</text></g><g><text fill="#632523" font-family="Calibri,Calibri_MSFontService,sans-serif" font-weight="400" font-size="46" transform="matrix(1 0 0 1 3553.45 260)">164</text></g><g><text fill="#632523" font-family="Calibri,Calibri_MSFontService,sans-serif" font-weight="400" font-size="46" transform="matrix(1 0 0 1 3927.55 228)">165</text></g><g><text fill="#595959" font-family="Calibri,Calibri_MSFontService,sans-serif" font-weight="400" font-size="46" transform="matrix(1 0 0 1 1792.62 1013)">140</text></g><g><text fill="#595959" font-family="Calibri,Calibri_MSFontService,sans-serif" font-weight="400" font-size="46" transform="matrix(1 0 0 1 1792.62 856)">145</text></g><g><text fill="#595959" font-family="Calibri,Calibri_MSFontService,sans-serif" font-weight="400" font-size="46" transform="matrix(1 0 0 1 1792.62 698)">150</text></g><g><text fill="#595959" font-family="Calibri,Calibri_MSFontService,sans-serif" font-weight="400" font-size="46" transform="matrix(1 0 0 1 1792.62 541)">155</text></g><g><text fill="#595959" font-family="Calibri,Calibri_MSFontService,sans-serif" font-weight="400" font-size="46" transform="matrix(1 0 0 1 1792.62 383)">160</text></g><g><text fill="#595959" font-family="Calibri,Calibri_MSFontService,sans-serif" font-weight="400" font-size="46" transform="matrix(1 0 0 1 1792.62 226)">165</text></g><g><text fill="#595959" font-family="Calibri,Calibri_MSFontService,sans-serif" font-weight="400" font-size="46" transform="matrix(1 0 0 1 1792.62 68)">170</text></g><g><text fill="#595959" font-family="Calibri,Calibri_MSFontService,sans-serif" font-weight="400" font-size="46" transform="matrix(1 0 0 1 2080.28 1073)">1</text></g><g><text fill="#595959" font-family="Calibri,Calibri_MSFontService,sans-serif" font-weight="400" font-size="46" transform="matrix(1 0 0 1 2454.38 1073)">2</text></g><g><text fill="#595959" font-family="Calibri,Calibri_MSFontService,sans-serif" font-weight="400" font-size="46" transform="matrix(1 0 0 1 2828.48 1073)">3</text></g><g><text fill="#595959" font-family="Calibri,Calibri_MSFontService,sans-serif" font-weight="400" font-size="46" transform="matrix(1 0 0 1 3202.58 1073)">4</text></g><g><text fill="#595959" font-family="Calibri,Calibri_MSFontService,sans-serif" font-weight="400" font-size="46" transform="matrix(1 0 0 1 3576.68 1073)">5</text></g><g><text fill="#595959" font-family="Calibri,Calibri_MSFontService,sans-serif" font-weight="400" font-size="46" transform="matrix(1 0 0 1 3950.78 1073)">6</text></g><g><text fill="#595959" font-family="Calibri,Calibri_MSFontService,sans-serif" font-weight="400" font-size="46" transform="matrix(1 0 0 1 4026.58 1066)">Time(H)</text></g><g><path d="M2202.5 1141.5 2318.5 1141.5" stroke="#4A7EBB" stroke-width="6.875" stroke-linecap="round" stroke-linejoin="round" stroke-miterlimit="10" stroke-dasharray="13.75 13.75" fill="none" fill-rule="evenodd"/></g><g><path d="M2273 1140.5C2273 1147.96 2266.96 1154 2259.5 1154 2252.04 1154 2246 1147.96 2246 1140.5 2246 1133.04 2252.04 1127 2259.5 1127 2266.96 1127 2273 1133.04 2273 1140.5Z" fill="#FFFFFF"/></g><g><text fill="#595959" font-family="Calibri,Calibri_MSFontService,sans-serif" font-weight="400" font-size="46" transform="matrix(1 0 0 1 2330.87 1155)">Hybrid-CAR-360</text></g><g><path d="M2701.5 1141.5 2817.5 1141.5" stroke="#294B74" stroke-width="6.875" stroke-linecap="round" stroke-linejoin="round" stroke-miterlimit="10" stroke-dasharray="48.125 27.5" fill="none" fill-rule="evenodd"/></g><g><path d="M2772 1140.5C2772 1147.96 2765.96 1154 2758.5 1154 2751.04 1154 2745 1147.96 2745 1140.5 2745 1133.04 2751.04 1127 2758.5 1127 2765.96 1127 2772 1133.04 2772 1140.5Z" fill="#FFFFFF"/></g><g><text fill="#595959" font-family="Calibri,Calibri_MSFontService,sans-serif" font-weight="400" font-size="46" transform="matrix(1 0 0 1 2830.18 1155)">simpleCAR</text></g><g><path d="M3102.5 1141.5 3217.5 1141.5" stroke="#F79646" stroke-width="6.875" stroke-linecap="round" stroke-linejoin="round" stroke-miterlimit="10" stroke-dasharray="20.625 27.5 0 27.5" fill="none" fill-rule="evenodd"/></g><g><path d="M3172 1140.5C3172 1147.96 3165.96 1154 3158.5 1154 3151.04 1154 3145 1147.96 3145 1140.5 3145 1133.04 3151.04 1127 3158.5 1127 3165.96 1127 3172 1133.04 3172 1140.5Z" fill="#FFFFFF"/></g><g><text fill="#595959" font-family="Calibri,Calibri_MSFontService,sans-serif" font-weight="400" font-size="46" transform="matrix(1 0 0 1 3230.24 1155)">BAC-1500</text></g><g><path d="M3486.5 1141.5 3602.5 1141.5" stroke="#632523" stroke-width="6.875" stroke-linecap="round" stroke-linejoin="round" stroke-miterlimit="10" stroke-dasharray="48.125 27.5 0 27.5" stroke-opacity="0.968627" fill="none" fill-rule="evenodd"/></g><g><path d="M3557 1140.5C3557 1147.96 3550.96 1154 3543.5 1154 3536.04 1154 3530 1147.96 3530 1140.5 3530 1133.04 3536.04 1127 3543.5 1127 3550.96 1127 3557 1133.04 3557 1140.5Z" fill="#FFFFFF"/></g><g><text fill="#595959" font-family="Calibri,Calibri_MSFontService,sans-serif" font-weight="400" font-size="46" transform="matrix(1 0 0 1 3614.85 1155)">ABC-BMC</text></g><rect x="1766.5" y="20.5001" width="2444" height="1191" stroke="#D9D9D9" stroke-width="3.4375" stroke-linejoin="round" stroke-miterlimit="10" fill="none"/></g></svg>